<?xml version="1.0" encoding="utf-8"?>
<!-- Generator: Adobe Illustrator 17.0.0, SVG Export Plug-In . SVG Version: 6.00 Build 0)  -->
<!DOCTYPE svg PUBLIC "-//W3C//DTD SVG 1.1//EN" "http://www.w3.org/Graphics/SVG/1.1/DTD/svg11.dtd">
<svg version="1.1" id="Logo" xmlns="http://www.w3.org/2000/svg" xmlns:xlink="http://www.w3.org/1999/xlink" x="0px" y="0px"
	 width="512px" height="512px" viewBox="0 0 512 512" enable-background="new 0 0 512 512" xml:space="preserve">
<g>
	<path d="M381.154,16.573l-62.462-0.1c-70.174,0-115.524,46.527-115.524,118.541v54.655h-62.803c-5.427,0-9.822,4.4-9.822,9.827
		v79.189c0,5.427,4.4,9.822,9.822,9.822h62.803v199.82c0,5.427,4.395,9.822,9.822,9.822h81.94c5.427,0,9.822-4.4,9.822-9.822
		v-199.82h73.432c5.427,0,9.822-4.395,9.822-9.822l0.03-79.189c0-2.606-1.037-5.101-2.876-6.945
		c-1.839-1.844-4.345-2.881-6.95-2.881h-73.457v-46.332c0-22.269,5.307-33.574,34.316-33.574l42.078-0.015
		c5.422,0,9.817-4.4,9.817-9.822V26.395C390.96,20.978,386.571,16.583,381.154,16.573z"/>
</g>
</svg>
