<?xml version="1.0" encoding="utf-8"?>
<!-- Generator: Adobe Illustrator 17.0.0, SVG Export Plug-In . SVG Version: 6.00 Build 0)  -->
<!DOCTYPE svg PUBLIC "-//W3C//DTD SVG 1.1//EN" "http://www.w3.org/Graphics/SVG/1.1/DTD/svg11.dtd">
<svg version="1.1" id="Layer_1" xmlns="http://www.w3.org/2000/svg" xmlns:xlink="http://www.w3.org/1999/xlink" x="0px" y="0px"
	 width="283.46px" height="224px" viewBox="0 0 283.46 224" enable-background="new 0 0 283.46 224" xml:space="preserve">
<path fill-rule="evenodd" clip-rule="evenodd" fill="#656364" d="M34.75,55.972l-2.866-27.173l8.714-0.917l0.974,9.23l8.14-0.86
	l-0.974-9.23l8.713-0.917l2.867,27.173l-8.714,0.917l-1.089-10.491l-8.14,0.86l1.089,10.491L34.75,55.972L34.75,55.972z
	 M65.248,52.303l-1.892-27.287l21.784-1.491l0.459,6.535l-13.013,0.86l0.229,3.669l11.007-0.803l0.459,6.249l-11.007,0.802
	l0.287,4.185l13.529-0.917l0.459,6.593L65.248,52.303L65.248,52.303z M108.874,38.946l8.312-0.459
	c-0.057,3.612-1.204,6.478-3.382,8.542c-2.179,2.121-5.217,3.267-9.115,3.497c-4.357,0.229-7.853-0.86-10.491-3.325
	c-2.694-2.407-4.127-5.847-4.357-10.319c-0.229-4.472,0.86-8.026,3.21-10.72c2.35-2.694,5.618-4.185,9.918-4.414
	c3.955-0.172,7.108,0.631,9.516,2.408c2.35,1.777,3.726,4.414,4.185,7.968l-8.37,0.459c-0.172-1.433-0.688-2.465-1.49-3.096
	c-0.86-0.688-1.949-0.974-3.382-0.917c-1.72,0.115-2.924,0.803-3.727,2.064c-0.802,1.319-1.146,3.268-1.032,5.79
	c0.172,2.465,0.688,4.3,1.662,5.56c1.032,1.204,2.351,1.777,4.127,1.663c1.376-0.058,2.408-0.516,3.21-1.319
	C108.415,41.525,108.817,40.379,108.874,38.946L108.874,38.946z M121.428,48.691V21.346h8.828v9.287h8.14v-9.287h8.771v27.345
	h-8.771V38.086h-8.14v10.606H121.428L121.428,48.691z M160.525,35.391c-0.114,2.58,0.229,4.472,1.089,5.733
	c0.803,1.261,2.121,1.892,3.956,1.949c1.834,0.057,3.21-0.459,4.127-1.662c0.86-1.147,1.376-3.039,1.49-5.675
	c0.058-2.58-0.287-4.472-1.089-5.733c-0.803-1.261-2.179-1.892-3.956-1.949c-1.892-0.057-3.267,0.516-4.127,1.662
	C161.098,30.92,160.583,32.812,160.525,35.391L160.525,35.391z M151.639,35.105c0.172-4.472,1.548-7.911,4.185-10.434
	c2.637-2.465,6.134-3.612,10.548-3.497c4.357,0.172,7.796,1.605,10.204,4.242c2.465,2.637,3.612,6.192,3.44,10.663
	c-0.172,4.414-1.548,7.911-4.185,10.376c-2.58,2.522-6.077,3.669-10.491,3.497c-4.357-0.115-7.797-1.548-10.262-4.185
	C152.671,43.073,151.525,39.519,151.639,35.105L151.639,35.105z M196.068,51.099l1.892-27.23l21.784,1.548l-0.459,6.478
	l-13.013-0.86l-0.229,3.612l11.007,0.745l-0.459,6.249l-11.007-0.745l-0.287,4.242l13.529,0.917l-0.459,6.65L196.068,51.099
	L196.068,51.099z M222.553,53.736l1.433-27.287l8.312,0.459l6.994,13.07c0.229,0.344,0.459,0.86,0.688,1.548
	c0.229,0.688,0.459,1.491,0.688,2.408c-0.057-0.459-0.057-0.974-0.057-1.605c0-0.573,0-1.261,0.057-2.064l0.631-12.899l8.37,0.459
	l-1.433,27.287l-8.37-0.459l-6.994-13.013c-0.172-0.401-0.401-0.917-0.688-1.605c-0.229-0.688-0.459-1.491-0.688-2.351
	c0.057,0.459,0.115,0.975,0.115,1.491c0,0.516,0,1.261-0.058,2.236l-0.688,12.784L222.553,53.736L222.553,53.736z M69.146,200.034
	l-7.911-0.688l2.408-27.23l10.605,0.917l2.58,13.93c0.057,0.172,0.114,0.631,0.229,1.319c0.057,0.631,0.172,1.548,0.344,2.752
	c0.286-0.917,0.516-1.662,0.688-2.35c0.229-0.688,0.401-1.147,0.516-1.491l5.102-13.3l10.606,0.917l-2.408,27.23l-7.911-0.688
	l1.261-13.414c0.057-0.802,0.172-1.605,0.229-2.35c0.057-0.803,0.172-1.605,0.229-2.408c-0.401,1.376-0.917,2.866-1.491,4.529
	l-0.057,0.229l-4.529,13.014l-6.077-0.516l-2.293-13.357c-0.114-0.573-0.172-1.261-0.287-2.064
	c-0.115-0.802-0.229-1.834-0.344-3.153c-0.057,1.147-0.114,2.178-0.172,3.038c-0.058,0.802-0.115,1.49-0.172,2.006L69.146,200.034
	L69.146,200.034z M97.237,201.926l1.433-27.287l21.784,1.146l-0.344,6.535l-13.013-0.688l-0.229,3.612l11.007,0.573l-0.287,6.306
	l-11.064-0.631l-0.172,4.242l13.529,0.688l-0.344,6.65L97.237,201.926L97.237,201.926z M120.855,202.9l9.631-14.045l-8.313-13.242
	l9.86,0.172l3.554,6.994l4.07-6.88l9.688,0.172l-9.115,12.956l8.943,14.389l-9.917-0.172l-4.013-7.51l-4.3,7.338L120.855,202.9
	L120.855,202.9z M151.639,203.187l-0.974-27.287l8.943-0.344l0.975,27.345L151.639,203.187L151.639,203.187z M183.055,191.664
	l8.312-0.459c-0.057,3.612-1.204,6.478-3.382,8.599c-2.178,2.064-5.217,3.21-9.115,3.44c-4.414,0.229-7.911-0.86-10.548-3.325
	c-2.637-2.408-4.07-5.848-4.3-10.319c-0.229-4.472,0.802-8.026,3.153-10.721c2.35-2.694,5.675-4.127,9.975-4.357
	c3.955-0.229,7.108,0.573,9.459,2.351c2.408,1.777,3.784,4.471,4.242,7.968l-8.37,0.459c-0.229-1.376-0.688-2.408-1.548-3.096
	c-0.802-0.688-1.892-0.974-3.325-0.917c-1.72,0.114-2.981,0.803-3.784,2.121c-0.745,1.261-1.089,3.21-0.974,5.733
	c0.114,2.465,0.688,4.357,1.662,5.56c0.974,1.204,2.35,1.777,4.127,1.72c1.376-0.115,2.408-0.516,3.153-1.376
	C182.596,194.244,182.997,193.097,183.055,191.664L183.055,191.664z M202.087,187.307c0.229,2.58,0.803,4.414,1.777,5.561
	c0.975,1.147,2.351,1.605,4.185,1.433c1.834-0.172,3.153-0.86,3.898-2.121c0.745-1.319,0.974-3.21,0.745-5.79
	c-0.229-2.637-0.802-4.471-1.777-5.618c-0.917-1.146-2.35-1.605-4.127-1.433c-1.834,0.172-3.153,0.86-3.898,2.179
	C202.087,182.779,201.858,184.728,202.087,187.307L202.087,187.307z M193.259,188.053c-0.401-4.414,0.573-8.026,2.866-10.835
	c2.293-2.752,5.675-4.357,10.032-4.701c4.357-0.401,7.911,0.573,10.663,2.924c2.752,2.351,4.3,5.733,4.701,10.147
	c0.401,4.414-0.573,8.026-2.866,10.835c-2.293,2.809-5.618,4.357-9.975,4.758c-4.357,0.401-7.968-0.631-10.72-2.981
	C195.208,195.906,193.66,192.467,193.259,188.053L193.259,188.053z M17.036,16.817l7.854-1.089l3.726-0.516l3.784-0.459l3.726-0.459
	l3.784-0.516l3.726-0.459l3.727-0.401l3.783-0.459l3.727-0.401l3.784-0.401l3.726-0.401l3.784-0.344l3.726-0.401l3.784-0.344
	l3.726-0.344l3.784-0.287l3.726-0.287l3.784-0.287l3.726-0.287l3.784-0.229l3.784-0.229l3.726-0.229l3.784-0.172l3.726-0.229
	l3.784-0.115l3.783-0.172l3.727-0.115l3.784-0.057l3.783-0.115l3.727-0.057h3.783h3.727h3.783h3.784l3.784,0.057l3.726,0.115
	l3.784,0.057l3.783,0.115l3.727,0.172l3.784,0.115l3.783,0.229l3.727,0.172l3.783,0.229l3.726,0.229l3.783,0.229l3.784,0.287
	l3.726,0.287l3.783,0.287l3.727,0.287l3.783,0.344l3.727,0.344l3.783,0.401l3.726,0.344l3.783,0.401l3.727,0.401l3.784,0.401
	l3.726,0.459l3.784,0.401l3.726,0.459l3.784,0.516l3.726,0.459l3.784,0.459l3.726,0.516l7.854,1.089l1.261,6.88l0.459,2.809
	l0.516,2.809l0.459,2.809l0.459,2.809l0.459,2.866l0.459,2.809l0.459,2.809l0.401,2.809l0.401,2.866l0.401,2.809l0.344,2.809
	l0.401,2.866l0.344,2.809l0.286,2.809l0.344,2.866l0.287,2.809l0.286,2.809l0.287,2.867l0.229,2.809l0.229,2.866l0.229,2.809
	l0.172,2.809l0.172,2.867l0.172,2.809l0.114,2.866l0.115,2.809l0.114,2.866l0.057,2.809l0.058,2.866l0.057,2.809v2.866v2.866
	l-0.057,2.809l-0.058,2.866l-0.057,2.809l-0.114,2.867l-0.115,2.809l-0.114,2.867l-0.172,2.809l-0.172,2.866l-0.172,2.809
	l-0.229,2.809l-0.229,2.866l-0.287,2.809l-0.229,2.866l-0.286,2.809l-0.287,2.809l-0.344,2.866l-0.344,2.809l-0.344,2.809
	l-0.344,2.809l-0.401,2.866l-0.344,2.809l-0.401,2.809l-0.459,2.809l-0.401,2.866l-0.459,2.809l-0.459,2.809l-0.459,2.809
	l-0.459,2.809l-0.516,2.809l-0.459,2.809l-1.261,6.88l-7.854,1.089l-3.726,0.516l-3.784,0.459l-3.726,0.516l-3.784,0.459
	l-3.726,0.459l-3.784,0.401l-3.726,0.459l-3.784,0.401l-3.727,0.401l-3.783,0.401l-3.726,0.401l-3.783,0.344l-3.727,0.344
	l-3.783,0.344l-3.727,0.287l-3.783,0.287l-3.726,0.286l-3.784,0.287l-3.783,0.229l-3.726,0.229l-3.783,0.229l-3.784,0.172
	l-3.726,0.172l-3.784,0.172l-3.727,0.114l-3.783,0.115l-3.784,0.114l-3.726,0.058l-3.784,0.057l-3.784,0.057h-3.783h-3.727
	l-3.783-0.057l-3.784-0.057l-3.726-0.058l-3.784-0.114l-3.727-0.115l-3.783-0.114l-3.784-0.172l-3.726-0.172l-3.784-0.229
	l-3.726-0.172l-3.784-0.229l-3.784-0.286l-3.726-0.229l-3.784-0.286l-3.726-0.287l-3.784-0.344l-3.726-0.344l-3.784-0.344
	l-3.726-0.344l-3.784-0.344l-3.726-0.401l-3.784-0.401l-3.727-0.401l-3.726-0.459l-3.784-0.459l-3.726-0.459l-3.784-0.459
	l-3.726-0.459l-3.727-0.459l-3.783-0.516l-7.854-1.089l-1.204-6.88l-0.516-2.809l-0.516-2.809l-0.459-2.809l-0.459-2.809
	l-0.459-2.809l-0.459-2.809l-0.401-2.866l-0.459-2.809l-0.401-2.809l-0.344-2.809l-0.401-2.866l-0.344-2.809l-0.344-2.809
	l-0.344-2.809l-0.344-2.866l-0.287-2.809l-0.287-2.809l-0.229-2.866l-0.287-2.809l-0.229-2.866l-0.229-2.809l-0.172-2.809
	l-0.172-2.866l-0.172-2.809l-0.114-2.867l-0.115-2.809l-0.114-2.867l-0.057-2.809l-0.058-2.866l-0.057-2.809v-2.866v-2.866
	l0.057-2.809l0.058-2.866l0.057-2.809l0.114-2.866l0.115-2.809l0.172-2.866l0.114-2.809l0.172-2.867l0.229-2.809l0.229-2.809
	l0.229-2.866l0.229-2.809l0.286-2.867l0.287-2.809l0.287-2.809l0.287-2.866l0.344-2.809l0.344-2.809l0.344-2.866l0.401-2.809
	l0.401-2.809l0.401-2.866l0.401-2.809l0.401-2.809l0.459-2.809l0.459-2.809l0.459-2.866l0.516-2.809l0.459-2.809l0.516-2.809
	L17.036,16.817L17.036,16.817z M21.909,21.862c39.785-5.446,79.627-9.23,119.412-9.23c39.842,0,79.684,3.784,119.526,9.23
	c5.446,29.867,9.23,59.734,9.23,89.544c-0.057,29.81-3.784,59.677-9.23,89.487c-39.842,5.446-79.684,9.23-119.526,9.173
	c-39.785,0-79.627-3.727-119.412-9.173c-5.446-29.81-9.23-59.677-9.173-89.487C12.736,81.597,16.52,51.729,21.909,21.862
	L21.909,21.862z M133.18,86.584c-16.51-1.376-41.562-0.401-49.76-2.064c-8.141-1.663,3.21-15.478,9.803-15.536
	c20.121-0.057,50.562,1.548,60.594-0.344c1.261-0.229,5.217-11.408,6.822-5.962C166.774,83.661,150.149,87.96,133.18,86.584
	L133.18,86.584z M111.969,102.062c-7.166-2.637-13.128-7.911-9.057-12.669c4.127-4.701,9.229,7.51,15.249,2.465
	c11.007-9.287,11.351,2.809,6.535,6.707C119.823,102.464,114.434,102.98,111.969,102.062L111.969,102.062z M227.77,109.4
	c-21.383-3.554-37.779-6.191-64.952-13.013c-0.516-0.115,0.287-17.943,1.204-18.001c22.013-1.376,44.256-1.663,65.926-1.204
	C240.095,77.412,237.974,111.12,227.77,109.4L227.77,109.4z M131.518,121.611c-2.809-1.777-8.37-5.962-11.867-12.153
	c8.255-4.93,13.071-9.172,14.676-19.606c6.765-0.229,12.44-0.344,17.657,0C158.92,101.088,141.894,120.866,131.518,121.611
	L131.518,121.611z M118.447,126.197c-21.899-4.529-61.053-10.376-65.467-10.663c-4.414-0.344-2.809,3.956-9.173,3.325
	c-0.229-9.975-2.293-20.466,8.599-22.873c12.211-2.752,24.994-4.529,37.549-4.93c10.835,7.854,22.128,21.154,32.791,31.587
	C125.441,125.28,122.517,127,118.447,126.197L118.447,126.197z M139.716,145.287c-16.854-5.159-33.708-10.319-50.562-15.478
	c0-4.3,11.293-0.344,15.478-0.459c12.497-0.172,36.574,1.892,38.294,15.937C143.04,146.089,140.518,145.287,139.716,145.287
	L139.716,145.287z M215.845,146.089c-6.994-0.974-56.926-27.116-60.079-29.18c-3.153-2.006,2.58-13.07,4.414-13.013
	c12.554,0.229,46.263,10.376,62.715,13.242c1.662,0.287,5.045,1.147,5.847,2.752C232.585,127.802,222.839,147.121,215.845,146.089
	L215.845,146.089z M177.207,164.721c-6.822-0.459-37.377-33.307-36.689-34.396c2.522-3.955,7.739-10.777,12.497-8.14
	c17.427,9.459,42.25,21.555,60.079,32.906c2.465,1.547-1.949,8.026-4.758,9C202.431,166.096,183.914,165.122,177.207,164.721
	L177.207,164.721z"/>
</svg>
