<?xml version="1.0" encoding="utf-8"?>
<!-- Generator: Adobe Illustrator 17.0.0, SVG Export Plug-In . SVG Version: 6.00 Build 0)  -->
<!DOCTYPE svg PUBLIC "-//W3C//DTD SVG 1.1//EN" "http://www.w3.org/Graphics/SVG/1.1/DTD/svg11.dtd">
<svg version="1.1" id="Logo" xmlns="http://www.w3.org/2000/svg" xmlns:xlink="http://www.w3.org/1999/xlink" x="0px" y="0px"
	 width="512px" height="512px" viewBox="0 0 512 512" enable-background="new 0 0 512 512" xml:space="preserve">
<g>
	<g>
		<path fill="#010002" d="M495.483,110.873c-17.556,7.779-36.393,13.055-56.185,15.41c20.209-12.102,35.678-31.297,43.01-54.099
			c-18.957,11.207-39.881,19.345-62.176,23.756c-17.854-19.046-43.249-30.909-71.416-30.909c-54.039,0-97.854,43.815-97.854,97.825
			c0,7.66,0.864,15.141,2.534,22.295C172.084,181.067,99.983,142.11,51.726,82.914c-8.435,14.427-13.234,31.237-13.234,49.181
			c0,33.95,17.288,63.905,43.518,81.431c-16.036-0.536-31.118-4.948-44.322-12.28v1.222c0,47.392,33.741,86.945,78.48,95.947
			c-8.197,2.206-16.84,3.428-25.782,3.428c-6.319,0-12.429-0.626-18.42-1.818c12.459,38.897,48.585,67.183,91.387,67.959
			c-33.473,26.23-75.679,41.819-121.521,41.819c-7.898,0-15.678-0.477-23.338-1.341c43.309,27.81,94.725,44.024,149.986,44.024
			c180,0,278.391-149.092,278.391-278.391l-0.328-12.668C465.766,147.713,482.398,130.485,495.483,110.873z"/>
	</g>
</g>
</svg>
